<svg width="8697" height="920" viewBox="0 0 8697 920" fill="none" xmlns="http://www.w3.org/2000/svg">
<path d="M119.505 36.7021L7.37501 49.4834L2.39662 877.46L95.6588 886.133M119.505 36.7021C157.767 61.4254 248.125 92.1987 303.45 17.505M119.505 36.7021L119.642 123.027L119.78 209.353M303.45 17.505L433.217 2.17503M303.45 17.505L303.466 106.351L303.482 195.197M433.217 2.17503L502.574 33.5699L503.143 390.213L543.475 395.19L543.63 492.227L503.306 492.291L503.946 893.042L433.418 917.099M433.217 2.17503L433.418 917.099M433.418 917.099L303.607 904.704M303.607 904.704L285.973 909.773M303.607 904.704L303.521 415.736M285.973 909.773L285.183 414.505M285.973 909.773L95.6709 893.694L95.6588 886.133M285.183 414.505L303.521 415.736M285.183 414.505L200.756 415.199M303.521 415.736L303.517 395.432M120.11 415.862L94.9082 416.069L95.6588 886.133M120.11 415.862L119.78 209.353M120.11 415.862L200.756 415.199M119.78 209.353L200.453 225.607M119.78 209.353C154.374 188.883 231.178 158.75 286.075 184.463M200.453 225.607L200.729 398.257M200.453 225.607C210.091 210.855 240.707 181.975 286.075 184.463M200.756 415.199L200.729 398.257M200.729 398.257L303.517 395.432M303.517 395.432L303.482 195.197M303.482 195.197C298.009 190.869 292.178 187.321 286.075 184.463" stroke="#00FFE0" stroke-width="3"/>
<path d="M3593.5 36.7021L3481.38 49.4834L3476.4 877.46L3569.66 886.133M3593.5 36.7021C3631.77 61.4254 3722.12 92.1987 3777.45 17.505M3593.5 36.7021L3593.64 123.027L3593.78 209.353M3777.45 17.505L3907.22 2.17503M3777.45 17.505L3777.47 106.351L3777.48 195.197M3907.22 2.17503L3976.57 33.5699L3977.14 390.213L4017.47 395.19L4017.63 492.227L3977.31 492.291L3977.95 893.042L3907.42 917.099M3907.22 2.17503L3907.42 917.099M3907.42 917.099L3777.61 904.704M3777.61 904.704L3759.97 909.773M3777.61 904.704L3777.52 415.736M3759.97 909.773L3759.18 414.505M3759.97 909.773L3569.67 893.694L3569.66 886.133M3759.18 414.505L3777.52 415.736M3759.18 414.505L3674.76 415.199M3777.52 415.736L3777.52 395.432M3594.11 415.862L3568.91 416.069L3569.66 886.133M3594.11 415.862L3593.78 209.353M3594.11 415.862L3674.76 415.199M3593.78 209.353L3674.45 225.607M3593.78 209.353C3628.37 188.883 3705.18 158.75 3760.08 184.463M3674.45 225.607L3674.73 398.257M3674.45 225.607C3684.09 210.855 3714.71 181.975 3760.08 184.463M3674.76 415.199L3674.73 398.257M3674.73 398.257L3777.52 395.432M3777.52 395.432L3777.48 195.197M3777.48 195.197C3772.01 190.869 3766.18 187.321 3760.08 184.463" stroke="#00FFE0" stroke-width="3"/>
<path d="M698.505 36.7021L586.375 49.4834L581.397 877.46L674.659 886.133M698.505 36.7021C736.767 61.4254 827.125 92.1987 882.45 17.505M698.505 36.7021L698.642 123.027L698.78 209.353M882.45 17.505L1012.22 2.17503M882.45 17.505L882.466 106.351L882.482 195.197M1012.22 2.17503L1081.57 33.5699L1082.14 390.213L1122.47 395.19L1122.63 492.227L1082.31 492.291L1082.95 893.042L1012.42 917.099M1012.22 2.17503L1012.42 917.099M1012.42 917.099L882.607 904.704M882.607 904.704L864.973 909.773M882.607 904.704L882.521 415.736M864.973 909.773L864.183 414.505M864.973 909.773L674.671 893.694L674.659 886.133M864.183 414.505L882.521 415.736M864.183 414.505L779.756 415.199M882.521 415.736L882.517 395.432M699.11 415.862L673.908 416.069L674.659 886.133M699.11 415.862L698.78 209.353M699.11 415.862L779.756 415.199M698.78 209.353L779.453 225.607M698.78 209.353C733.374 188.883 810.178 158.75 865.075 184.463M779.453 225.607L779.729 398.257M779.453 225.607C789.091 210.855 819.707 181.975 865.075 184.463M779.756 415.199L779.729 398.257M779.729 398.257L882.517 395.432M882.517 395.432L882.482 195.197M882.482 195.197C877.009 190.869 871.178 187.321 865.075 184.463" stroke="#00FFE0" stroke-width="3"/>
<path d="M4172.5 36.7021L4060.38 49.4834L4055.4 877.46L4148.66 886.133M4172.5 36.7021C4210.77 61.4254 4301.12 92.1987 4356.45 17.505M4172.5 36.7021L4172.64 123.027L4172.78 209.353M4356.45 17.505L4486.22 2.17503M4356.45 17.505L4356.47 106.351L4356.48 195.197M4486.22 2.17503L4555.57 33.5699L4556.14 390.213L4596.47 395.19L4596.63 492.227L4556.31 492.291L4556.95 893.042L4486.42 917.099M4486.22 2.17503L4486.42 917.099M4486.42 917.099L4356.61 904.704M4356.61 904.704L4338.97 909.773M4356.61 904.704L4356.52 415.736M4338.97 909.773L4338.18 414.505M4338.97 909.773L4148.67 893.694L4148.66 886.133M4338.18 414.505L4356.52 415.736M4338.18 414.505L4253.76 415.199M4356.52 415.736L4356.52 395.432M4173.11 415.862L4147.91 416.069L4148.66 886.133M4173.11 415.862L4172.78 209.353M4173.11 415.862L4253.76 415.199M4172.78 209.353L4253.45 225.607M4172.78 209.353C4207.37 188.883 4284.18 158.75 4339.08 184.463M4253.45 225.607L4253.73 398.257M4253.45 225.607C4263.09 210.855 4293.71 181.975 4339.08 184.463M4253.76 415.199L4253.73 398.257M4253.73 398.257L4356.52 395.432M4356.52 395.432L4356.48 195.197M4356.48 195.197C4351.01 190.869 4345.18 187.321 4339.08 184.463" stroke="#00FFE0" stroke-width="3"/>
<path d="M1277.5 36.7021L1165.38 49.4834L1160.4 877.46L1253.66 886.133M1277.5 36.7021C1315.77 61.4254 1406.12 92.1987 1461.45 17.505M1277.5 36.7021L1277.64 123.027L1277.78 209.353M1461.45 17.505L1591.22 2.17503M1461.45 17.505L1461.47 106.351L1461.48 195.197M1591.22 2.17503L1660.57 33.5699L1661.14 390.213L1701.47 395.19L1701.63 492.227L1661.31 492.291L1661.95 893.042L1591.42 917.099M1591.22 2.17503L1591.42 917.099M1591.42 917.099L1461.61 904.704M1461.61 904.704L1443.97 909.773M1461.61 904.704L1461.52 415.736M1443.97 909.773L1443.18 414.505M1443.97 909.773L1253.67 893.694L1253.66 886.133M1443.18 414.505L1461.52 415.736M1443.18 414.505L1358.76 415.199M1461.52 415.736L1461.52 395.432M1278.11 415.862L1252.91 416.069L1253.66 886.133M1278.11 415.862L1277.78 209.353M1278.11 415.862L1358.76 415.199M1277.78 209.353L1358.45 225.607M1277.78 209.353C1312.37 188.883 1389.18 158.75 1444.08 184.463M1358.45 225.607L1358.73 398.257M1358.45 225.607C1368.09 210.855 1398.71 181.975 1444.08 184.463M1358.76 415.199L1358.73 398.257M1358.73 398.257L1461.52 395.432M1461.52 395.432L1461.48 195.197M1461.48 195.197C1456.01 190.869 1450.18 187.321 1444.08 184.463" stroke="#00FFE0" stroke-width="3"/>
<path d="M4751.5 36.7021L4639.38 49.4834L4634.4 877.46L4727.66 886.133M4751.5 36.7021C4789.77 61.4254 4880.12 92.1987 4935.45 17.505M4751.5 36.7021L4751.64 123.027L4751.78 209.353M4935.45 17.505L5065.22 2.17503M4935.45 17.505L4935.47 106.351L4935.48 195.197M5065.22 2.17503L5134.57 33.5699L5135.14 390.213L5175.47 395.19L5175.63 492.227L5135.31 492.291L5135.95 893.042L5065.42 917.099M5065.22 2.17503L5065.42 917.099M5065.42 917.099L4935.61 904.704M4935.61 904.704L4917.97 909.773M4935.61 904.704L4935.52 415.736M4917.97 909.773L4917.18 414.505M4917.97 909.773L4727.67 893.694L4727.66 886.133M4917.18 414.505L4935.52 415.736M4917.18 414.505L4832.76 415.199M4935.52 415.736L4935.52 395.432M4752.11 415.862L4726.91 416.069L4727.66 886.133M4752.11 415.862L4751.78 209.353M4752.11 415.862L4832.76 415.199M4751.78 209.353L4832.45 225.607M4751.78 209.353C4786.37 188.883 4863.18 158.75 4918.08 184.463M4832.45 225.607L4832.73 398.257M4832.45 225.607C4842.09 210.855 4872.71 181.975 4918.08 184.463M4832.76 415.199L4832.73 398.257M4832.73 398.257L4935.52 395.432M4935.52 395.432L4935.48 195.197M4935.48 195.197C4930.01 190.869 4924.18 187.321 4918.08 184.463" stroke="#00FFE0" stroke-width="3"/>
<path d="M1856.5 36.7021L1744.38 49.4834L1739.4 877.46L1832.66 886.133M1856.5 36.7021C1894.77 61.4254 1985.12 92.1987 2040.45 17.505M1856.5 36.7021L1856.64 123.027L1856.78 209.353M2040.45 17.505L2170.22 2.17503M2040.45 17.505L2040.47 106.351L2040.48 195.197M2170.22 2.17503L2239.57 33.5699L2240.14 390.213L2280.47 395.19L2280.63 492.227L2240.31 492.291L2240.95 893.042L2170.42 917.099M2170.22 2.17503L2170.42 917.099M2170.42 917.099L2040.61 904.704M2040.61 904.704L2022.97 909.773M2040.61 904.704L2040.52 415.736M2022.97 909.773L2022.18 414.505M2022.97 909.773L1832.67 893.694L1832.66 886.133M2022.18 414.505L2040.52 415.736M2022.18 414.505L1937.76 415.199M2040.52 415.736L2040.52 395.432M1857.11 415.862L1831.91 416.069L1832.66 886.133M1857.11 415.862L1856.78 209.353M1857.11 415.862L1937.76 415.199M1856.78 209.353L1937.45 225.607M1856.78 209.353C1891.37 188.883 1968.18 158.75 2023.08 184.463M1937.45 225.607L1937.73 398.257M1937.45 225.607C1947.09 210.855 1977.71 181.975 2023.08 184.463M1937.76 415.199L1937.73 398.257M1937.73 398.257L2040.52 395.432M2040.52 395.432L2040.48 195.197M2040.48 195.197C2035.01 190.869 2029.18 187.321 2023.08 184.463" stroke="#00FFE0" stroke-width="3"/>
<path d="M5330.5 36.7021L5218.38 49.4834L5213.4 877.46L5306.66 886.133M5330.5 36.7021C5368.77 61.4254 5459.12 92.1987 5514.45 17.505M5330.5 36.7021L5330.64 123.027L5330.78 209.353M5514.45 17.505L5644.22 2.17503M5514.45 17.505L5514.47 106.351L5514.48 195.197M5644.22 2.17503L5713.57 33.5699L5714.14 390.213L5754.47 395.19L5754.63 492.227L5714.31 492.291L5714.95 893.042L5644.42 917.099M5644.22 2.17503L5644.42 917.099M5644.42 917.099L5514.61 904.704M5514.61 904.704L5496.97 909.773M5514.61 904.704L5514.52 415.736M5496.97 909.773L5496.18 414.505M5496.97 909.773L5306.67 893.694L5306.66 886.133M5496.18 414.505L5514.52 415.736M5496.18 414.505L5411.76 415.199M5514.52 415.736L5514.52 395.432M5331.11 415.862L5305.91 416.069L5306.66 886.133M5331.11 415.862L5330.78 209.353M5331.11 415.862L5411.76 415.199M5330.78 209.353L5411.45 225.607M5330.78 209.353C5365.37 188.883 5442.18 158.75 5497.08 184.463M5411.45 225.607L5411.73 398.257M5411.45 225.607C5421.09 210.855 5451.71 181.975 5497.08 184.463M5411.76 415.199L5411.73 398.257M5411.73 398.257L5514.52 395.432M5514.52 395.432L5514.48 195.197M5514.48 195.197C5509.01 190.869 5503.18 187.321 5497.08 184.463" stroke="#00FFE0" stroke-width="3"/>
<path d="M2435.5 36.7021L2323.38 49.4834L2318.4 877.46L2411.66 886.133M2435.5 36.7021C2473.77 61.4254 2564.12 92.1987 2619.45 17.505M2435.5 36.7021L2435.64 123.027L2435.78 209.353M2619.45 17.505L2749.22 2.17503M2619.45 17.505L2619.47 106.351L2619.48 195.197M2749.22 2.17503L2818.57 33.5699L2819.14 390.213L2859.47 395.19L2859.63 492.227L2819.31 492.291L2819.95 893.042L2749.42 917.099M2749.22 2.17503L2749.42 917.099M2749.42 917.099L2619.61 904.704M2619.61 904.704L2601.97 909.773M2619.61 904.704L2619.52 415.736M2601.97 909.773L2601.18 414.505M2601.97 909.773L2411.67 893.694L2411.66 886.133M2601.18 414.505L2619.52 415.736M2601.18 414.505L2516.76 415.199M2619.52 415.736L2619.52 395.432M2436.11 415.862L2410.91 416.069L2411.66 886.133M2436.11 415.862L2435.78 209.353M2436.11 415.862L2516.76 415.199M2435.78 209.353L2516.45 225.607M2435.78 209.353C2470.37 188.883 2547.18 158.75 2602.08 184.463M2516.45 225.607L2516.73 398.257M2516.45 225.607C2526.09 210.855 2556.71 181.975 2602.08 184.463M2516.76 415.199L2516.73 398.257M2516.73 398.257L2619.52 395.432M2619.52 395.432L2619.48 195.197M2619.48 195.197C2614.01 190.869 2608.18 187.321 2602.08 184.463" stroke="#00FFE0" stroke-width="3"/>
<path d="M5909.5 36.7021L5797.38 49.4834L5792.4 877.46L5885.66 886.133M5909.5 36.7021C5947.77 61.4254 6038.12 92.1987 6093.45 17.505M5909.5 36.7021L5909.64 123.027L5909.78 209.353M6093.45 17.505L6223.22 2.17503M6093.45 17.505L6093.47 106.351L6093.48 195.197M6223.22 2.17503L6292.57 33.5699L6293.14 390.213L6333.47 395.19L6333.63 492.227L6293.31 492.291L6293.95 893.042L6223.42 917.099M6223.22 2.17503L6223.42 917.099M6223.42 917.099L6093.61 904.704M6093.61 904.704L6075.97 909.773M6093.61 904.704L6093.52 415.736M6075.97 909.773L6075.18 414.505M6075.97 909.773L5885.67 893.694L5885.66 886.133M6075.18 414.505L6093.52 415.736M6075.18 414.505L5990.76 415.199M6093.52 415.736L6093.52 395.432M5910.11 415.862L5884.91 416.069L5885.66 886.133M5910.11 415.862L5909.78 209.353M5910.11 415.862L5990.76 415.199M5909.78 209.353L5990.45 225.607M5909.78 209.353C5944.37 188.883 6021.18 158.75 6076.08 184.463M5990.45 225.607L5990.73 398.257M5990.45 225.607C6000.09 210.855 6030.71 181.975 6076.08 184.463M5990.76 415.199L5990.73 398.257M5990.73 398.257L6093.52 395.432M6093.52 395.432L6093.48 195.197M6093.48 195.197C6088.01 190.869 6082.18 187.321 6076.08 184.463" stroke="#00FFE0" stroke-width="3"/>
<path d="M3014.5 36.7021L2902.38 49.4834L2897.4 877.46L2990.66 886.133M3014.5 36.7021C3052.77 61.4254 3143.12 92.1987 3198.45 17.505M3014.5 36.7021L3014.64 123.027L3014.78 209.353M3198.45 17.505L3328.22 2.17503M3198.45 17.505L3198.47 106.351L3198.48 195.197M3328.22 2.17503L3397.57 33.5699L3398.14 390.213L3438.47 395.19L3438.63 492.227L3398.31 492.291L3398.95 893.042L3328.42 917.099M3328.22 2.17503L3328.42 917.099M3328.42 917.099L3198.61 904.704M3198.61 904.704L3180.97 909.773M3198.61 904.704L3198.52 415.736M3180.97 909.773L3180.18 414.505M3180.97 909.773L2990.67 893.694L2990.66 886.133M3180.18 414.505L3198.52 415.736M3180.18 414.505L3095.76 415.199M3198.52 415.736L3198.52 395.432M3015.11 415.862L2989.91 416.069L2990.66 886.133M3015.11 415.862L3014.78 209.353M3015.11 415.862L3095.76 415.199M3014.78 209.353L3095.45 225.607M3014.78 209.353C3049.37 188.883 3126.18 158.75 3181.08 184.463M3095.45 225.607L3095.73 398.257M3095.45 225.607C3105.09 210.855 3135.71 181.975 3181.08 184.463M3095.76 415.199L3095.73 398.257M3095.73 398.257L3198.52 395.432M3198.52 395.432L3198.48 195.197M3198.48 195.197C3193.01 190.869 3187.18 187.321 3181.08 184.463" stroke="#00FFE0" stroke-width="3"/>
<path d="M6488.5 36.7021L6376.38 49.4834L6371.4 877.46L6464.66 886.133M6488.5 36.7021C6526.77 61.4254 6617.12 92.1987 6672.45 17.505M6488.5 36.7021L6488.64 123.027L6488.78 209.353M6672.45 17.505L6802.22 2.17503M6672.45 17.505L6672.47 106.351L6672.48 195.197M6802.22 2.17503L6871.57 33.5699L6872.14 390.213L6912.47 395.19L6912.63 492.227L6872.31 492.291L6872.95 893.042L6802.42 917.099M6802.22 2.17503L6802.42 917.099M6802.42 917.099L6672.61 904.704M6672.61 904.704L6654.97 909.773M6672.61 904.704L6672.52 415.736M6654.97 909.773L6654.18 414.505M6654.97 909.773L6464.67 893.694L6464.66 886.133M6654.18 414.505L6672.52 415.736M6654.18 414.505L6569.76 415.199M6672.52 415.736L6672.52 395.432M6489.11 415.862L6463.91 416.069L6464.66 886.133M6489.11 415.862L6488.78 209.353M6489.11 415.862L6569.76 415.199M6488.78 209.353L6569.45 225.607M6488.78 209.353C6523.37 188.883 6600.18 158.75 6655.08 184.463M6569.45 225.607L6569.73 398.257M6569.45 225.607C6579.09 210.855 6609.71 181.975 6655.08 184.463M6569.76 415.199L6569.73 398.257M6569.73 398.257L6672.52 395.432M6672.52 395.432L6672.48 195.197M6672.48 195.197C6667.01 190.869 6661.18 187.321 6655.08 184.463" stroke="#00FFE0" stroke-width="3"/>
<path d="M7067.5 36.7021L6955.38 49.4834L6950.4 877.46L7043.66 886.133M7067.5 36.7021C7105.77 61.4254 7196.12 92.1987 7251.45 17.505M7067.5 36.7021L7067.64 123.027L7067.78 209.353M7251.45 17.505L7381.22 2.17503M7251.45 17.505L7251.47 106.351L7251.48 195.197M7381.22 2.17503L7450.57 33.5699L7451.14 390.213L7491.47 395.19L7491.63 492.227L7451.31 492.291L7451.95 893.042L7381.42 917.099M7381.22 2.17503L7381.42 917.099M7381.42 917.099L7251.61 904.704M7251.61 904.704L7233.97 909.773M7251.61 904.704L7251.52 415.736M7233.97 909.773L7233.18 414.505M7233.97 909.773L7043.67 893.694L7043.66 886.133M7233.18 414.505L7251.52 415.736M7233.18 414.505L7148.76 415.199M7251.52 415.736L7251.52 395.432M7068.11 415.862L7042.91 416.069L7043.66 886.133M7068.11 415.862L7067.78 209.353M7068.11 415.862L7148.76 415.199M7067.78 209.353L7148.45 225.607M7067.78 209.353C7102.37 188.883 7179.18 158.75 7234.08 184.463M7148.45 225.607L7148.73 398.257M7148.45 225.607C7158.09 210.855 7188.71 181.975 7234.08 184.463M7148.76 415.199L7148.73 398.257M7148.73 398.257L7251.52 395.432M7251.52 395.432L7251.48 195.197M7251.48 195.197C7246.01 190.869 7240.18 187.321 7234.08 184.463" stroke="#00FFE0" stroke-width="3"/>
<path d="M7646.5 36.7021L7534.38 49.4834L7529.4 877.46L7622.66 886.133M7646.5 36.7021C7684.77 61.4254 7775.12 92.1987 7830.45 17.505M7646.5 36.7021L7646.64 123.027L7646.78 209.353M7830.45 17.505L7960.22 2.17503M7830.45 17.505L7830.47 106.351L7830.48 195.197M7960.22 2.17503L8029.57 33.5699L8030.14 390.213L8070.47 395.19L8070.63 492.227L8030.31 492.291L8030.95 893.042L7960.42 917.099M7960.22 2.17503L7960.42 917.099M7960.42 917.099L7830.61 904.704M7830.61 904.704L7812.97 909.773M7830.61 904.704L7830.52 415.736M7812.97 909.773L7812.18 414.505M7812.97 909.773L7622.67 893.694L7622.66 886.133M7812.18 414.505L7830.52 415.736M7812.18 414.505L7727.76 415.199M7830.52 415.736L7830.52 395.432M7647.11 415.862L7621.91 416.069L7622.66 886.133M7647.11 415.862L7646.78 209.353M7647.11 415.862L7727.76 415.199M7646.78 209.353L7727.45 225.607M7646.78 209.353C7681.37 188.883 7758.18 158.75 7813.08 184.463M7727.45 225.607L7727.73 398.257M7727.45 225.607C7737.09 210.855 7767.71 181.975 7813.08 184.463M7727.76 415.199L7727.73 398.257M7727.73 398.257L7830.52 395.432M7830.52 395.432L7830.48 195.197M7830.48 195.197C7825.01 190.869 7819.18 187.321 7813.08 184.463" stroke="#00FFE0" stroke-width="3"/>
<path d="M8225.5 36.7021L8113.38 49.4834L8108.4 877.46L8201.66 886.133M8225.5 36.7021C8263.77 61.4254 8354.12 92.1987 8409.45 17.505M8225.5 36.7021L8225.64 123.027L8225.78 209.353M8409.45 17.505L8539.22 2.17503M8409.45 17.505L8409.47 106.351L8409.48 195.197M8539.22 2.17503L8608.57 33.5699L8609.14 390.213L8649.47 395.19L8649.63 492.227L8609.31 492.291L8609.95 893.042L8539.42 917.099M8539.22 2.17503L8539.42 917.099M8539.42 917.099L8409.61 904.704M8409.61 904.704L8391.97 909.773M8409.61 904.704L8409.52 415.736M8391.97 909.773L8391.18 414.505M8391.97 909.773L8201.67 893.694L8201.66 886.133M8391.18 414.505L8409.52 415.736M8391.18 414.505L8306.76 415.199M8409.52 415.736L8409.52 395.432M8226.11 415.862L8200.91 416.069L8201.66 886.133M8226.11 415.862L8225.78 209.353M8226.11 415.862L8306.76 415.199M8225.78 209.353L8306.45 225.607M8225.78 209.353C8260.37 188.883 8337.18 158.75 8392.08 184.463M8306.45 225.607L8306.73 398.257M8306.45 225.607C8316.09 210.855 8346.71 181.975 8392.08 184.463M8306.76 415.199L8306.73 398.257M8306.73 398.257L8409.52 395.432M8409.52 395.432L8409.48 195.197M8409.48 195.197C8404.01 190.869 8398.18 187.321 8392.08 184.463" stroke="#00FFE0" stroke-width="3"/>
<path d="M119.505 36.7021L7.37501 49.4834L2.39662 877.46L95.6588 886.133M119.505 36.7021C157.767 61.4254 248.125 92.1987 303.45 17.505M119.505 36.7021L119.642 123.027L119.78 209.353M303.45 17.505L433.217 2.17503M303.45 17.505L303.466 106.351L303.482 195.197M433.217 2.17503L502.574 33.5699L503.143 390.213L543.475 395.19L543.63 492.227L503.306 492.291L503.946 893.042L433.418 917.099M433.217 2.17503L433.418 917.099M433.418 917.099L303.607 904.704M303.607 904.704L285.973 909.773L285.183 414.505M303.607 904.704L303.521 415.736M285.183 414.505L303.521 415.736M285.183 414.505L200.756 415.199M303.521 415.736L303.517 395.432M95.6709 893.694L95.6588 886.133M120.11 415.862L94.9082 416.069L95.6588 886.133M120.11 415.862L119.78 209.353M120.11 415.862L200.756 415.199M119.78 209.353L200.453 225.607M119.78 209.353C154.374 188.883 231.178 158.75 286.075 184.463M200.453 225.607L200.729 398.257M200.453 225.607C210.091 210.855 240.707 181.975 286.075 184.463M200.756 415.199L200.729 398.257M200.729 398.257L303.517 395.432M303.517 395.432L303.482 195.197M303.482 195.197C298.009 190.869 292.178 187.321 286.075 184.463" stroke="black" stroke-width="3"/>
<path d="M3593.5 36.7021L3481.38 49.4834L3476.4 877.46M3593.5 36.7021C3631.77 61.4254 3722.12 92.1987 3777.45 17.505M3593.5 36.7021L3593.64 123.027L3593.78 209.353M3777.45 17.505L3907.22 2.17503M3777.45 17.505L3777.47 106.351L3777.48 195.197M3907.22 2.17503L3976.57 33.5699L3977.14 390.213L4017.47 395.19L4017.63 492.227L3977.31 492.291L3977.95 893.042L3907.42 917.099L3907.22 2.17503ZM3568.91 416.069L3594.11 415.862M3594.11 415.862L3593.78 209.353M3594.11 415.862L3674.76 415.199M3593.78 209.353L3674.45 225.607M3593.78 209.353C3628.37 188.883 3705.18 158.75 3760.08 184.463M3674.45 225.607L3674.73 398.257M3674.45 225.607C3684.09 210.855 3714.71 181.975 3760.08 184.463M3674.76 415.199L3759.18 414.505L3777.52 415.736L3777.52 395.432M3674.76 415.199L3674.73 398.257M3674.73 398.257L3777.52 395.432M3777.52 395.432L3777.48 195.197M3777.48 195.197C3772.01 190.869 3766.18 187.321 3760.08 184.463" stroke="black" stroke-width="3"/>
<path d="M698.505 36.7021L586.375 49.4834L581.397 877.46M698.505 36.7021C736.767 61.4254 827.125 92.1987 882.45 17.505M698.505 36.7021L698.642 123.027L698.78 209.353M882.45 17.505L1012.22 2.17503M882.45 17.505L882.466 106.351L882.482 195.197M1012.22 2.17503L1081.57 33.5699L1082.14 390.213L1122.47 395.19L1122.63 492.227L1082.31 492.291L1082.95 893.042L1012.42 917.099M1012.22 2.17503L1012.42 917.099M1012.42 917.099L882.607 904.704M882.607 904.704L864.973 909.773L864.183 414.505M882.607 904.704L882.521 415.736M864.183 414.505L882.521 415.736M864.183 414.505L779.756 415.199M882.521 415.736L882.517 395.432M674.671 893.694L674.659 886.133L673.908 416.069L699.11 415.862M699.11 415.862L698.78 209.353M699.11 415.862L779.756 415.199M698.78 209.353L779.453 225.607M698.78 209.353C733.374 188.883 810.178 158.75 865.075 184.463M779.453 225.607L779.729 398.257M779.453 225.607C789.091 210.855 819.707 181.975 865.075 184.463M779.756 415.199L779.729 398.257M779.729 398.257L882.517 395.432M882.517 395.432L882.482 195.197M882.482 195.197C877.009 190.869 871.178 187.321 865.075 184.463" stroke="black" stroke-width="3"/>
<path d="M4172.5 36.7021L4060.38 49.4834L4055.4 877.46M4172.5 36.7021C4210.77 61.4254 4301.12 92.1987 4356.45 17.505M4172.5 36.7021L4172.64 123.027L4172.78 209.353M4356.45 17.505L4486.22 2.17503M4356.45 17.505L4356.47 106.351L4356.48 195.197M4486.22 2.17503L4555.57 33.5699L4556.14 390.213L4596.47 395.19L4596.63 492.227L4556.31 492.291L4556.95 893.042L4486.42 917.099L4486.22 2.17503ZM4338.18 414.505L4356.52 415.736L4356.52 395.432M4173.11 415.862L4172.78 209.353M4172.78 209.353L4253.45 225.607M4172.78 209.353C4207.37 188.883 4284.18 158.75 4339.08 184.463M4253.45 225.607L4253.73 398.257M4253.45 225.607C4263.09 210.855 4293.71 181.975 4339.08 184.463M4253.76 415.199L4253.73 398.257M4253.73 398.257L4356.52 395.432M4356.52 395.432L4356.48 195.197M4356.48 195.197C4351.01 190.869 4345.18 187.321 4339.08 184.463" stroke="black" stroke-width="3"/>
<path d="M1277.5 36.7021L1165.38 49.4834L1160.4 877.46M1277.5 36.7021C1315.77 61.4254 1406.12 92.1987 1461.45 17.505M1277.5 36.7021L1277.64 123.027L1277.78 209.353M1461.45 17.505L1591.22 2.17503M1461.45 17.505L1461.47 106.351L1461.48 195.197M1591.22 2.17503L1660.57 33.5699L1661.14 390.213L1701.47 395.19L1701.63 492.227L1661.31 492.291L1661.95 893.042L1591.42 917.099L1591.22 2.17503ZM1461.61 904.704L1461.52 415.736M1443.97 909.773L1443.18 414.505M1443.18 414.505L1461.52 415.736M1443.18 414.505L1358.76 415.199M1461.52 415.736L1461.52 395.432M1253.67 893.694L1253.66 886.133L1252.91 416.069L1278.11 415.862M1278.11 415.862L1277.78 209.353M1278.11 415.862L1358.76 415.199M1277.78 209.353L1358.45 225.607M1277.78 209.353C1312.37 188.883 1389.18 158.75 1444.08 184.463M1358.45 225.607L1358.73 398.257M1358.45 225.607C1368.09 210.855 1398.71 181.975 1444.08 184.463M1358.76 415.199L1358.73 398.257M1358.73 398.257L1461.52 395.432M1461.52 395.432L1461.48 195.197M1461.48 195.197C1456.01 190.869 1450.18 187.321 1444.08 184.463" stroke="black" stroke-width="3"/>
<path d="M4639.38 49.4837L4751.5 36.7024M4751.5 36.7024C4789.77 61.4257 4880.12 92.199 4935.45 17.5053M4751.5 36.7024L4751.64 123.028L4751.78 209.353M4935.45 17.5053L5065.22 2.17533M4935.45 17.5053L4935.47 106.351L4935.48 195.197M5065.22 2.17533L5134.57 33.5702L5135.14 390.213L5175.48 395.19L5175.63 492.227L5135.31 492.291L5135.95 893.042L5065.42 917.099L5065.22 2.17533ZM4935.52 415.737L4935.52 395.433M4752.11 415.863L4751.78 209.353M4751.78 209.353L4832.45 225.607M4751.78 209.353C4786.37 188.883 4863.18 158.751 4918.08 184.463M4832.45 225.607L4832.73 398.258M4832.45 225.607C4842.09 210.856 4872.71 181.975 4918.08 184.463M4832.76 415.2L4832.73 398.258M4832.73 398.258L4935.52 395.433M4935.52 395.433L4935.48 195.197M4935.48 195.197C4930.01 190.869 4924.18 187.321 4918.08 184.463" stroke="black" stroke-width="3"/>
<path d="M1856.5 36.7021L1744.38 49.4834L1739.4 877.46M1856.5 36.7021C1894.77 61.4254 1985.12 92.1987 2040.45 17.505M1856.5 36.7021L1856.64 123.027L1856.78 209.353M2040.45 17.505L2170.22 2.17503M2040.45 17.505L2040.47 106.351L2040.48 195.197M2170.22 2.17503L2239.57 33.5699L2240.14 390.213L2280.47 395.19L2280.63 492.227L2240.31 492.291L2240.95 893.042M2170.22 2.17503L2170.42 917.099M2040.61 904.704L2040.52 415.736M2022.97 909.773L2022.18 414.505M2022.18 414.505L2040.52 415.736M2022.18 414.505L1937.76 415.199M2040.52 415.736L2040.52 395.432M1832.67 893.694L1832.66 886.133L1831.91 416.069L1857.11 415.862M1857.11 415.862L1856.78 209.353M1857.11 415.862L1937.76 415.199M1856.78 209.353L1937.45 225.607M1856.78 209.353C1891.37 188.883 1968.18 158.75 2023.08 184.463M1937.45 225.607L1937.73 398.257M1937.45 225.607C1947.09 210.855 1977.71 181.975 2023.08 184.463M1937.76 415.199L1937.73 398.257M1937.73 398.257L2040.52 395.432M2040.52 395.432L2040.48 195.197M2040.48 195.197C2035.01 190.869 2029.18 187.321 2023.08 184.463" stroke="black" stroke-width="3"/>
<path d="M5218.38 49.4837L5330.5 36.7024M5330.5 36.7024C5368.77 61.4257 5459.12 92.199 5514.45 17.5053M5330.5 36.7024L5330.64 123.028L5330.78 209.353M5514.45 17.5053L5644.22 2.17533L5713.57 33.5702L5714.14 390.213L5754.48 395.19L5754.63 492.227L5714.31 492.291M5514.45 17.5053L5514.47 106.351L5514.48 195.197M5496.18 414.506L5514.52 415.737L5514.52 395.433M5331.11 415.863L5330.78 209.353M5330.78 209.353L5411.45 225.607M5330.78 209.353C5365.37 188.883 5442.18 158.751 5497.08 184.463M5411.45 225.607L5411.73 398.258M5411.45 225.607C5421.09 210.856 5451.71 181.975 5497.08 184.463M5411.76 415.2L5411.73 398.258M5411.73 398.258L5514.52 395.433M5514.52 395.433L5514.48 195.197M5514.48 195.197C5509.01 190.869 5503.18 187.321 5497.08 184.463" stroke="black" stroke-width="3"/>
<path d="M2435.5 36.7021L2323.38 49.4834L2318.4 877.46M2435.5 36.7021C2473.77 61.4254 2564.12 92.1987 2619.45 17.505M2435.5 36.7021L2435.64 123.027L2435.78 209.353M2619.45 17.505L2749.22 2.17503M2619.45 17.505L2619.47 106.351L2619.48 195.197M2749.22 2.17503L2818.57 33.5699L2819.14 390.213L2859.47 395.19L2859.63 492.227L2819.31 492.291L2819.95 893.042M2749.22 2.17503L2749.42 917.099M2619.61 904.704L2619.52 415.736M2601.97 909.773L2601.18 414.505M2601.18 414.505L2619.52 415.736M2601.18 414.505L2516.76 415.199M2619.52 415.736L2619.52 395.432M2410.91 416.069L2436.11 415.862M2436.11 415.862L2435.78 209.353M2436.11 415.862L2516.76 415.199M2435.78 209.353L2516.45 225.607M2435.78 209.353C2470.37 188.883 2547.18 158.75 2602.08 184.463M2516.45 225.607L2516.73 398.257M2516.45 225.607C2526.09 210.855 2556.71 181.975 2602.08 184.463M2516.76 415.199L2516.73 398.257M2516.73 398.257L2619.52 395.432M2619.52 395.432L2619.48 195.197M2619.48 195.197C2614.01 190.869 2608.18 187.321 2602.08 184.463" stroke="black" stroke-width="3"/>
<path d="M5797.38 49.4837L5909.5 36.7024M5909.5 36.7024C5947.77 61.4257 6038.12 92.199 6093.45 17.5053M5909.5 36.7024L5909.64 123.028L5909.78 209.353L5990.45 225.607M6093.45 17.5053L6223.22 2.17533L6292.57 33.5702L6293.14 390.213L6333.48 395.19L6333.63 492.227L6293.31 492.291M6093.45 17.5053L6093.47 106.351L6093.48 195.197C6088.01 190.869 6082.18 187.321 6076.08 184.463C6030.71 181.975 6000.09 210.856 5990.45 225.607M6093.52 415.737L6093.52 395.433L5990.73 398.258M5990.45 225.607L5990.73 398.258M5990.76 415.2L5990.73 398.258" stroke="black" stroke-width="3"/>
<path d="M3014.5 36.7021L2902.38 49.4834L2897.4 877.46M3014.5 36.7021C3052.77 61.4254 3143.12 92.1987 3198.45 17.505M3014.5 36.7021L3014.64 123.027L3014.78 209.353M3198.45 17.505L3328.22 2.17503M3198.45 17.505L3198.47 106.351L3198.48 195.197M3328.22 2.17503L3397.57 33.5699L3398.14 390.213L3438.47 395.19L3438.63 492.227L3398.31 492.291L3398.95 893.042M3328.22 2.17503L3328.42 917.099M3198.61 904.704L3198.52 415.736M3198.52 415.736L3180.18 414.505L3095.76 415.199M3198.52 415.736L3198.52 395.432M2989.91 416.069L3015.11 415.862M3015.11 415.862L3014.78 209.353M3015.11 415.862L3095.76 415.199M3014.78 209.353L3095.45 225.607M3014.78 209.353C3049.37 188.883 3126.18 158.75 3181.08 184.463M3095.45 225.607L3095.73 398.257M3095.45 225.607C3105.09 210.855 3135.71 181.975 3181.08 184.463M3095.76 415.199L3095.73 398.257M3095.73 398.257L3198.52 395.432M3198.52 395.432L3198.48 195.197M3198.48 195.197C3193.01 190.869 3187.18 187.321 3181.08 184.463" stroke="black" stroke-width="3"/>
<path d="M6376.38 49.4837L6488.5 36.7024M6488.5 36.7024C6526.77 61.4257 6617.12 92.199 6672.45 17.5053M6488.5 36.7024L6488.64 123.028L6488.78 209.353L6569.45 225.607M6672.45 17.5053L6802.22 2.17533L6871.57 33.5702M6672.45 17.5053L6672.47 106.351L6672.48 195.197C6667.01 190.869 6661.18 187.321 6655.08 184.463C6609.71 181.975 6579.09 210.856 6569.45 225.607M6672.52 415.737L6672.52 395.433L6569.73 398.258M6569.45 225.607L6569.73 398.258M6569.76 415.2L6569.73 398.258" stroke="black" stroke-width="3"/>
<path d="M7251.52 415.737L7251.52 395.433L7148.73 398.258L7148.76 415.2M7067.5 36.7031C7105.77 61.4265 7196.12 92.1998 7251.45 17.506L7251.47 106.352L7251.48 195.198C7246.01 190.87 7240.18 187.322 7234.08 184.464C7188.71 181.976 7158.09 210.856 7148.45 225.608L7067.78 209.354L7067.64 123.028L7067.5 36.7031Z" stroke="black" stroke-width="3"/>
<path d="M7646.78 209.354L7646.64 123.028L7646.5 36.7031C7684.77 61.4265 7775.12 92.1998 7830.45 17.506L7830.47 106.352L7830.48 195.198C7825.01 190.87 7819.18 187.322 7813.08 184.464C7767.71 181.976 7737.09 210.856 7727.45 225.608" stroke="black" stroke-width="3"/>
</svg>
