<svg width="400" height="74" viewBox="0 0 400 74" fill="none" xmlns="http://www.w3.org/2000/svg">
<path d="M76.725 29.75V46H73.25V39.35H73.225C73.225 39.35 72.1 40.375 69.525 40.375C66.375 40.375 65.275 38.25 65.275 35.525V29.75H68.75V35.1C68.75 37.725 69.375 38.375 70.8 38.375C72.05 38.375 73.025 37.875 73.25 37.75V29.75H76.725ZM88.0484 33.5H90.9484V46H87.6234V37.275L82.7484 46H80.1484V33.5H83.4734V41.725L88.0484 33.5ZM103.217 35.325H99.6174V46H96.3174V35.325H92.7174L92.6924 33.5H103.217V35.325ZM110.564 43.225V39.925C108.489 40.15 107.164 40.825 107.164 42.575C107.164 43.95 107.764 44.6 108.639 44.6C110.014 44.6 110.564 43.225 110.564 43.225ZM105.514 35.825L105.189 34.225C105.189 34.225 107.114 33.225 109.064 33.225C111.989 33.225 113.889 34.225 113.889 37.6V43.275C113.889 44.325 114.164 44.6 114.414 44.6C114.714 44.6 115.264 44.425 115.264 44.425L115.364 45.725C115.364 45.725 113.639 46.275 112.589 46.275C111.614 46.275 111.114 45.825 110.939 44.725H110.814C110.814 44.725 110.114 46.275 107.539 46.275C105.239 46.275 103.689 45.05 103.689 43C103.689 39.675 107.889 38.825 110.564 38.6V37.875C110.564 35.55 109.939 34.9 108.489 34.9C107.314 34.9 105.514 35.825 105.514 35.825ZM126.118 35.325H122.518V46H119.218V35.325H115.618L115.593 33.5H126.118V35.325ZM132.252 39.275H131.227V44.5H132.252C133.527 44.5 134.377 44 134.377 41.75C134.377 39.65 133.352 39.275 132.252 39.275ZM131.227 33.5V37.8H132.402C135.777 37.8 137.927 38.925 137.927 41.75C137.927 44.65 136.127 46 132.402 46H127.902V33.5H131.227ZM146.506 46V33.5H149.831V38.725L151.406 37.9L154.181 33.5H156.106L153.156 38.175L157.056 46H153.281L150.631 40.075L149.831 40.425V46H146.506ZM158.835 46V33.5H162.16V38.725H166.035V33.5H169.36V46H166.035V40.425H162.16V46H158.835ZM180.26 33.5H183.16V46H179.835V37.275L174.96 46H172.36V33.5H175.685V41.725L180.26 33.5ZM193.679 35.325H189.479V46H186.154V33.5H193.679V35.325ZM194.781 50.2C194.781 50.2 195.431 50.475 196.081 50.475C197.681 50.475 198.406 49.225 199.456 46.5L194.131 33.5H198.156L201.206 42.4L203.781 33.5H205.856L201.531 46.275C200.156 50.075 198.906 52.525 196.456 52.525C195.156 52.525 194.506 52.15 194.506 52.15L194.781 50.2ZM213.864 46V33.5H217.189V38.725H221.064V33.5H224.389V46H221.064V40.425H217.189V46H213.864ZM233.44 43.225V39.925C231.365 40.15 230.04 40.825 230.04 42.575C230.04 43.95 230.64 44.6 231.515 44.6C232.89 44.6 233.44 43.225 233.44 43.225ZM228.39 35.825L228.065 34.225C228.065 34.225 229.99 33.225 231.94 33.225C234.865 33.225 236.765 34.225 236.765 37.6V43.275C236.765 44.325 237.04 44.6 237.29 44.6C237.59 44.6 238.14 44.425 238.14 44.425L238.24 45.725C238.24 45.725 236.515 46.275 235.465 46.275C234.49 46.275 233.99 45.825 233.815 44.725H233.69C233.69 44.725 232.99 46.275 230.415 46.275C228.115 46.275 226.565 45.05 226.565 43C226.565 39.675 230.765 38.825 233.44 38.6V37.875C233.44 35.55 232.815 34.9 231.365 34.9C230.19 34.9 228.39 35.825 228.39 35.825ZM258.029 32.6C258.029 32.6 255.654 31.375 253.804 31.375C251.079 31.375 249.779 33.025 249.779 37.875C249.779 42.725 251.204 44.4 253.979 44.4C256.654 44.4 258.129 42.075 258.129 42.075L259.229 43.275C259.229 43.275 257.679 46.275 253.504 46.275C248.504 46.275 245.979 43.025 245.979 38C245.979 32.875 248.704 29.5 253.379 29.5C255.954 29.5 258.379 30.775 258.379 30.775L258.029 32.6ZM267.033 43.225V39.925C264.958 40.15 263.633 40.825 263.633 42.575C263.633 43.95 264.233 44.6 265.108 44.6C266.483 44.6 267.033 43.225 267.033 43.225ZM261.983 35.825L261.658 34.225C261.658 34.225 263.583 33.225 265.533 33.225C268.458 33.225 270.358 34.225 270.358 37.6V43.275C270.358 44.325 270.633 44.6 270.883 44.6C271.183 44.6 271.733 44.425 271.733 44.425L271.833 45.725C271.833 45.725 270.108 46.275 269.058 46.275C268.083 46.275 267.583 45.825 267.408 44.725H267.283C267.283 44.725 266.583 46.275 264.008 46.275C261.708 46.275 260.158 45.05 260.158 43C260.158 39.675 264.358 38.825 267.033 38.6V37.875C267.033 35.55 266.408 34.9 264.958 34.9C263.783 34.9 261.983 35.825 261.983 35.825ZM277.126 27.15V46H273.801V27.35L277.126 27.15ZM286.198 43.225V39.925C284.123 40.15 282.798 40.825 282.798 42.575C282.798 43.95 283.398 44.6 284.273 44.6C285.648 44.6 286.198 43.225 286.198 43.225ZM281.148 35.825L280.823 34.225C280.823 34.225 282.748 33.225 284.698 33.225C287.623 33.225 289.523 34.225 289.523 37.6V43.275C289.523 44.325 289.798 44.6 290.048 44.6C290.348 44.6 290.898 44.425 290.898 44.425L290.998 45.725C290.998 45.725 289.273 46.275 288.223 46.275C287.248 46.275 286.748 45.825 286.573 44.725H286.448C286.448 44.725 285.748 46.275 283.173 46.275C280.873 46.275 279.323 45.05 279.323 43C279.323 39.675 283.523 38.825 286.198 38.6V37.875C286.198 35.55 285.573 34.9 284.123 34.9C282.948 34.9 281.148 35.825 281.148 35.825ZM292.966 46V33.5H295.641L296.066 34.625H296.141C296.141 34.625 297.341 33.25 299.441 33.25C300.791 33.25 301.691 33.65 302.191 34.575C302.316 34.475 303.566 33.25 305.741 33.25C308.116 33.25 309.066 34.425 309.066 37.275V46H305.741V37.525C305.741 35.625 305.266 35.3 304.416 35.3C303.466 35.3 302.841 35.975 302.641 36.25C302.666 36.55 302.691 36.875 302.691 37.225V46H299.366V37.525C299.366 35.625 298.866 35.3 298.066 35.3C297.066 35.3 296.391 36.05 296.291 36.2V46H292.966ZM316.735 34.85C315.41 34.85 314.835 35.7 314.71 38.85H318.535V38.275C318.535 35.725 318.06 34.85 316.735 34.85ZM320.335 42.95L321.46 43.825C321.46 43.825 320.26 46.275 317.035 46.275C313.51 46.275 311.185 44.45 311.185 39.975C311.185 35.55 313.41 33.25 316.735 33.25C319.835 33.25 321.635 35.25 321.635 38.9C321.635 39.9 321.435 40.475 321.435 40.475H314.71C314.76 43.5 315.535 44.6 317.435 44.6C319.36 44.6 320.335 42.95 320.335 42.95ZM328.851 34.9C327.201 34.9 326.601 36.15 326.601 39.725C326.601 43.35 327.201 44.625 328.851 44.625C330.501 44.625 331.101 43.35 331.101 39.75C331.101 36.15 330.501 34.9 328.851 34.9ZM334.701 39.75C334.701 43.9 332.451 46.275 328.851 46.275C325.101 46.275 323.026 43.9 323.026 39.75C323.026 35.6 325.101 33.225 328.851 33.225C332.626 33.225 334.701 35.6 334.701 39.75Z" fill="#FF005C"/>
<rect x="2" y="2" width="396" height="70" stroke="#00FFE0" stroke-width="3"/>
</svg>
