<svg width="546" height="919" viewBox="0 0 546 919" fill="none" xmlns="http://www.w3.org/2000/svg">
<path d="M119.505 36.7021L7.37501 49.4834L2.39662 877.46L95.6588 886.132M119.505 36.7021C157.767 61.4254 248.125 92.1987 303.45 17.505M119.505 36.7021L119.78 209.353M303.45 17.505L433.217 2.17503M303.45 17.505L303.482 195.197M433.217 2.17503L502.574 33.5699L503.143 390.213L543.475 395.189L543.63 492.227L503.306 492.291L503.946 893.042L433.418 917.099M433.217 2.17503L433.418 917.099M433.418 917.099L303.607 904.704M303.607 904.704L285.974 909.773M303.607 904.704L303.521 415.736M285.974 909.773L285.183 414.505M285.974 909.773L95.6709 893.694L95.6588 886.132M285.183 414.505L303.521 415.736M285.183 414.505L200.756 415.199M303.521 415.736L303.517 395.432M120.11 415.862L94.9082 416.069L95.6588 886.132M120.11 415.862L119.78 209.353M120.11 415.862L200.756 415.199M119.78 209.353L200.453 225.607M119.78 209.353C154.374 188.883 231.178 158.75 286.075 184.463M200.453 225.607L200.729 398.257M200.453 225.607C210.091 210.855 240.707 181.975 286.075 184.463M200.756 415.199L200.729 398.257M200.729 398.257L303.517 395.432M303.517 395.432L303.482 195.197M303.482 195.197C298.009 190.869 292.178 187.321 286.075 184.463" stroke="#00FFE0" stroke-width="3"/>
</svg>
